# xmcd
#
# Track frame offsets: 
#        151
#        23346
#        47085
#        66518
#        84509
#        117712
#        139949
#
# Disc length: 2181 seconds
#
# Revision: 0
# Processed by: cddbd v1.5.1PL0 Copyright (c) Steve Scherf et al.
# Submitted via: ExactAudioCopy v0.95a5
#
DISCID=5f088307
DTITLE=Chris Bergson Band - Another Day
DYEAR=2004
DGENRE=Blues
TTITLE0=Come And Gone
TTITLE1=High Above The Morning
TTITLE2=Sweet White Lie
TTITLE3=Greyhound Station
TTITLE4=Three Sisters/Death Letter
TTITLE5=Up In Buffalo
TTITLE6=Another Day
EXTD=
EXTT0=
EXTT1=
EXTT2=
EXTT3=
EXTT4=
EXTT5=
EXTT6=
PLAYORDER=
